Coordinates
version=1
nRows=26
nColumns=22
inDegrees=yes

Units are S.I. units (second, meters, Newtons, ...)
If the header above contains a line with 'inDegrees', this indicates whether rotational values are in degrees (yes) or radians (no).

endheader
time	pelvis_tilt	pelvis_list	pelvis_rotation	pelvis_tx	pelvis_ty	pelvis_tz	hip_flexion_r	hip_adduction_r	hip_rotation_r	knee_angle_r	ankle_angle_r	subtalar_angle_r	hip_flexion_l	hip_adduction_l	hip_rotation_l	knee_angle_l	ankle_angle_l	subtalar_angle_l	lumbar_extension	lumbar_bending	lumbar_rotation
      2.72000000	      7.82433259	    -14.51702190	     31.06544116	      0.27194606	      0.87429973	     -0.30334588	      5.56809334	     -4.97653790	      0.25387246	    -54.47061075	     -8.28628647	      7.36372737	     27.97311644	     -6.84795815	      1.61427715	    -34.62064918	      7.95213875	     -5.39668461	     -2.60137257	      3.71886382	     34.48115565
      2.73000000	      8.24774800	    -14.38117593	     34.19980807	      0.27590480	      0.87505059	     -0.31058885	      6.33985724	     -5.64322642	      0.40387738	    -54.37951599	     -8.38998348	      6.06420802	     27.36595837	     -5.78261443	      3.53233282	    -34.12562960	      8.04798448	     -5.14551622	     -2.51433452	      3.77190322	     33.99074851
      2.74000000	      8.70716076	    -14.31832043	     37.34300977	      0.27938703	      0.87573512	     -0.31740763	      7.07899495	     -6.10265577	      0.86261520	    -54.24805830	     -8.45885384	      5.14514681	     26.79692124	     -4.89092621	      5.41840457	    -33.63771416	      8.08053400	     -4.92013234	     -2.41623684	      3.91082814	     33.56705880
      2.75000000	      9.17693958	    -14.29192301	     40.47814240	      0.28246837	      0.87634318	     -0.32378154	      7.82278677	     -6.42302911	      1.59026666	    -54.14249248	     -8.51415168	      4.47499857	     26.25778772	     -4.13545774	      7.19396164	    -33.12873993	      8.13647872	     -4.70082307	     -2.29271295	      4.08195945	     33.18213603
      2.76000000	      9.67416092	    -14.27797287	     43.62659385	      0.28519177	      0.87691755	     -0.32975562	      8.52994371	     -6.63115389	      2.53018674	    -54.06771102	     -8.50375003	      4.14959333	     25.73809121	     -3.49942957	      8.82610237	    -32.61091393	      8.17068602	     -4.52673943	     -2.16119383	      4.27205069	     32.82788001
      2.77000000	     10.17937588	    -14.24924514	     46.79544411	      0.28757102	      0.87744831	     -0.33535769	      9.21089668	     -6.79231750	      3.59387925	    -54.06925884	     -8.40154489	      4.05481908	     25.24182255	     -2.94223357	     10.27506702	    -32.08579247	      8.15878382	     -4.41572880	     -2.02224725	      4.44543428	     32.48812483
      2.78000000	     10.75080936	    -14.19278190	     49.99866755	      0.28967575	      0.87805852	     -0.34067735	      9.78639347	     -6.87222741	      4.73052133	    -54.10395275	     -8.32436930	      4.05656941	     24.71427186	     -2.50294719	     11.51417043	    -31.55137931	      8.16308944	     -4.27746662	     -1.91690863	      4.64303577	     32.15651722
      2.79000000	     11.34168505	    -14.08384042	     53.22897762	      0.29149792	      0.87871203	     -0.34575332	     10.28442975	     -6.94274971	      5.87473631	    -54.20514191	     -8.27297693	      4.14642593	     24.17104005	     -2.12439915	     12.53731985	    -31.01164048	      8.15707374	     -4.13408796	     -1.82843279	      4.81714571	     31.82922140
      2.80000000	     11.90731259	    -13.92776004	     56.49189487	      0.29297190	      0.87931059	     -0.35059627	     10.76334110	     -7.06530909	      6.93158780	    -54.42518443	     -8.24082406	      4.19700143	     23.65866477	     -1.75471947	     13.37156600	    -30.49078503	      8.09097291	     -4.05301920	     -1.72704916	      4.94307370	     31.48501658
      2.81000000	     12.50393229	    -13.70184064	     59.79109633	      0.29413331	      0.88001292	     -0.35530832	     11.12035209	     -7.18594319	      7.90947166	    -54.66835028	     -8.34729483	      4.23692601	     23.09270708	     -1.44063931	     14.01860715	    -29.95743629	      8.06809346	     -3.93668878	     -1.66954276	      5.07079445	     31.06558532
      2.82000000	     13.08020369	    -13.43052339	     63.12797226	      0.29490279	      0.88069131	     -0.35983299	     11.44392735	     -7.35717656	      8.72569273	    -54.99020559	     -8.53019695	      4.21783264	     22.53642029	     -1.13074272	     14.55306004	    -29.42799521	      8.00680983	     -3.82003171	     -1.61109272	      5.17643330	     30.60878871
      2.83000000	     13.67761872	    -13.09392890	     66.50268262	      0.29528976	      0.88142865	     -0.36422334	     11.66530678	     -7.53493437	      9.39472477	    -55.33021467	     -8.79233706	      4.13293519	     21.93537757	     -0.86062881	     14.99379882	    -28.89245454	      7.95676597	     -3.62980543	     -1.58997570	      5.30385086	     30.07790071
      2.84000000	     14.22833018	    -12.74892575	     69.92584121	      0.29522680	      0.88204466	     -0.36838747	     11.88735496	     -7.76852038	      9.88661393	    -55.70511967	     -9.09442878	      4.06815366	     21.41299699	     -0.56795395	     15.36378982	    -28.41180142	      7.87865219	     -3.47046336	     -1.52375863	      5.41905472	     29.43147564
      2.85000000	     14.75278792	    -12.40307438	     73.36894839	      0.29479268	      0.88260560	     -0.37229487	     12.11170759	     -8.02607340	     10.22984197	    -56.09237185	     -9.42751455	      4.04166388	     20.92280424	     -0.28874906	     15.66366337	    -27.91109034	      7.74477733	     -3.31338887	     -1.41668197	      5.53806199	     28.71997592
      2.86000000	     15.34439584	    -11.98468513	     76.84400749	      0.29404244	      0.88325800	     -0.37597568	     12.18157935	     -8.19824604	     10.48305445	    -56.40119137	     -9.65331924	      3.98632847	     20.37929471	     -0.10477331	     15.86570172	    -27.43179713	      7.70609434	     -2.95331871	     -1.37540115	      5.73697190	     27.91359059
      2.87000000	     15.88532432	    -11.59342101	     80.30534728	      0.29303287	      0.88377247	     -0.37923994	     12.31880135	     -8.39041584	     10.65057965	    -56.72184375	     -9.78808477	      3.98107967	     19.93193342	      0.07446639	     15.92981953	    -26.97259149	      7.62005503	     -2.60175726	     -1.26641423	      5.91448588	     27.05439616
      2.88000000	     16.39349502	    -11.22268859	     83.74273998	      0.29183308	      0.88418073	     -0.38214683	     12.48765506	     -8.58075915	     10.76967227	    -57.01311876	     -9.75946959	      3.98347035	     19.53764968	      0.23795372	     15.86055896	    -26.49750614	      7.54280272	     -2.33820394	     -1.09363692	      6.08026498	     26.15226091
      2.89000000	     16.95201429	    -10.81502905	     87.14848675	      0.29052702	      0.88458836	     -0.38470042	     12.61225647	     -8.67700189	     10.85197146	    -57.24000286	     -9.59054297	      3.89577542	     19.15203140	      0.29418229	     15.57684422	    -26.05168659	      7.50131983	     -1.83202581	     -0.94128983	      6.31109177	     25.24785631
      2.90000000	     17.47588852	    -10.43579372	     90.50973146	      0.28912918	      0.88483346	     -0.38688162	     12.79758416	     -8.77383824	     10.91938529	    -57.43394200	     -9.26629727	      3.79086174	     18.82346928	      0.34929683	     15.16306331	    -25.58335615	      7.49545373	     -1.59681620	     -0.71897665	      6.51651998	     24.32053251
      2.91000000	     18.05916734	    -10.03385293	     93.82543406	      0.28772467	      0.88500260	     -0.38872342	     12.98560436	     -8.76201628	     10.96197225	    -57.56285051	     -8.88532081	      3.47099814	     18.53178139	      0.29655646	     14.54756931	    -25.15817551	      7.53494576	     -1.18414144	     -0.48584986	      6.79495503	     23.41298375
      2.92000000	     18.63344977	     -9.65345329	     97.08821556	      0.28633642	      0.88497494	     -0.39025033	     13.23382197	     -8.72899780	     10.99927940	    -57.64639248	     -8.35827303	      3.21424368	     18.27791465	      0.22589995	     13.84134837	    -24.69648669	      7.65850952	     -0.99143438	     -0.18216089	      7.06259569	     22.52087102
      2.93000000	     19.29306256	     -9.27716995	    100.31097059	      0.28508306	      0.88476183	     -0.39136635	     13.57762602	     -8.55765949	     11.01351047	    -57.71135962	     -7.90498802	      2.68867135	     18.13185776	      0.03912001	     13.00155616	    -24.31813697	      7.82555748	     -0.65820830	      0.16880265	      7.41400449	     21.63924751
      2.94000000	     19.97629035	     -8.91855678	    103.49317547	      0.28393342	      0.88430432	     -0.39217191	     14.01012542	     -8.33726569	     11.01524242	    -57.74166645	     -7.36848812	      2.21151187	     18.04992421	     -0.18176505	     12.13172234	    -23.93295754	      8.08748752	     -0.40303971	      0.59721571	      7.77168148	     20.78843874
      2.95000000	     20.68903685	     -8.53774640	    106.67005861	      0.28282174	      0.88364296	     -0.39263835	     14.49809386	     -8.05803129	     10.99119805	    -57.74159280	     -6.84700590	      1.93126973	     17.99531820	     -0.42928551	     11.33926574	    -23.53058065	      8.42144668	     -0.26983067	      1.05740925	      8.15200869	     19.89357779
      2.96000000	     21.43897013	     -8.17059924	    109.82601581	      0.28181644	      0.88271807	     -0.39274983	     15.11413723	     -7.72752233	     10.94163304	    -57.73587472	     -6.35277582	      1.51317351	     18.05984697	     -0.70727803	     10.54247163	    -23.18894483	      8.76464970	      0.00474457	      1.58925328	      8.54636251	     18.99825224
      2.97000000	     22.11388865	     -7.71818002	    112.98623513	      0.28060916	      0.88170637	     -0.39268896	     15.65777965	     -7.45793662	     10.84737303	    -57.65594140	     -5.80626690	      1.31990802	     17.98758550	     -0.91018256	      9.96124245	    -22.72072328	      9.16510804	      0.14733120	      2.07245482	      8.88473618	     18.04464411
